PathFileType	4	(X/Y/Z)	/tmp/tmpjnq7zxqp/Me/MarkerData/squat04_segment_0.trc
DataRate	CameraRate	NumFrames	NumMarkers	Units	OrigDataRate	OrigDataStartFrame	OrigNumFrames
100.206	100.206	9	38	m	100.206	182	487
Frame#	Time	C7			CLAV			LANK			LASI			LBHD			LELB			LFHD			LFIN			LFRM			LHEE			LKNE			LPSI			LSHO			LTHI			LTIB			LTOE			LUPA			LWRA			LWRB			RANK			RBAK			RBHD			RELB			RFHD			RFIN			RFRM			RHEE			RKNE			RPSI			RSHO			RTHI			RTIB			RTOE			RUPA			RWRA			RWRB			STRN			T10		
		X1	Y1	Z1	X2	Y2	Z2	X3	Y3	Z3	X4	Y4	Z4	X5	Y5	Z5	X6	Y6	Z6	X7	Y7	Z7	X8	Y8	Z8	X9	Y9	Z9	X10	Y10	Z10	X11	Y11	Z11	X12	Y12	Z12	X13	Y13	Z13	X14	Y14	Z14	X15	Y15	Z15	X16	Y16	Z16	X17	Y17	Z17	X18	Y18	Z18	X19	Y19	Z19	X20	Y20	Z20	X21	Y21	Z21	X22	Y22	Z22	X23	Y23	Z23	X24	Y24	Z24	X25	Y25	Z25	X26	Y26	Z26	X27	Y27	Z27	X28	Y28	Z28	X29	Y29	Z29	X30	Y30	Z30	X31	Y31	Z31	X32	Y32	Z32	X33	Y33	Z33	X34	Y34	Z34	X35	Y35	Z35	X36	Y36	Z36	X37	Y37	Z37	X38	Y38	Z38

183	1.81626	-0.217283	0.895291	0.00173353	-0.367996	0.785667	0.00812719	-0.216401	0.0955953	0.220654	-0.0929469	0.485247	0.17711	-0.315114	1.0165	0.0875198	-0.530711	0.622867	0.270252	-0.432537	1.07037	0.0643999	-0.612521	0.792243	0.0539136	-0.615031	0.651709	0.141543	-0.145395	0.061959	0.164712	-0.431914	0.417987	0.284867	0.02617	0.500114	0.0519899	-0.307753	0.872446	0.176872	-0.250901	0.43196	0.260757	-0.287443	0.218623	0.256526	-0.382859	0.0687569	0.188451	-0.405827	0.741541	0.263975	-0.579686	0.704578	0.0477567	-0.64818	0.71013	0.0741931	-0.210149	0.099753	-0.192273	-0.169408	0.780329	-0.131764	-0.301251	1.01418	-0.0606366	-0.49947	0.606984	-0.265813	-0.417157	1.05919	-0.0642222	-0.620972	0.794984	-0.0664919	-0.562789	0.621116	-0.206355	-0.150905	0.0587647	-0.113899	-0.400476	0.423719	-0.280465	0.0253273	0.495632	-0.00216952	-0.32188	0.860801	-0.161161	-0.121897	0.461429	-0.173921	-0.352614	0.309269	-0.284323	-0.37269	0.0639702	-0.190131	-0.437323	0.674629	-0.253377	-0.572644	0.706799	-0.056384	-0.641785	0.705226	-0.0807521	-0.358279	0.622088	0.0179277	-0.105445	0.708868	0.00886138
184	1.82624	-0.217228	0.895191	0.00171802	-0.367963	0.785563	0.00813077	-0.21636	0.0955946	0.220714	-0.0929716	0.485538	0.177016	-0.314893	1.01644	0.0875389	-0.530615	0.622817	0.2704	-0.432273	1.0704	0.0644962	-0.612514	0.792187	0.0540864	-0.615006	0.651655	0.141763	-0.145396	0.0619453	0.16472	-0.431719	0.417951	0.285627	0.0261526	0.5	0.0520125	-0.307667	0.872344	0.176884	-0.250618	0.431933	0.261055	-0.287219	0.218613	0.256716	-0.382818	0.0688512	0.188509	-0.405711	0.741476	0.264045	-0.579696	0.70454	0.0479969	-0.648192	0.71009	0.0744324	-0.210116	0.099737	-0.192299	-0.169398	0.780226	-0.131793	-0.301112	1.01414	-0.0606723	-0.499598	0.607015	-0.265816	-0.416979	1.05923	-0.0641462	-0.621031	0.794937	-0.0663747	-0.562885	0.621144	-0.206347	-0.150872	0.0587459	-0.113911	-0.400405	0.423712	-0.280568	0.0253362	0.495525	-0.00216274	-0.321853	0.860669	-0.161149	-0.121885	0.461379	-0.173931	-0.352527	0.309278	-0.284376	-0.372667	0.0640109	-0.190152	-0.437425	0.674614	-0.253368	-0.572762	0.706762	-0.0562975	-0.641894	0.7052	-0.0806841	-0.358219	0.621945	0.0179479	-0.105366	0.708847	0.00883438
185	1.83622	-0.217169	0.895089	0.00168821	-0.36794	0.785494	0.00814676	-0.216316	0.0955819	0.220774	-0.0929054	0.485497	0.17702	-0.314709	1.01642	0.087549	-0.53054	0.622793	0.270538	-0.432054	1.07043	0.0645622	-0.612539	0.79212	0.0542463	-0.615004	0.651611	0.141967	-0.145368	0.0619597	0.164717	-0.43169	0.41791	0.286491	0.0261464	0.499904	0.0519904	-0.307587	0.872268	0.176886	-0.25033	0.431902	0.261371	-0.286989	0.218619	0.25688	-0.382774	0.0689466	0.188558	-0.405616	0.741442	0.264103	-0.579749	0.704505	0.0482208	-0.648247	0.710055	0.0746554	-0.210094	0.0997204	-0.192333	-0.169398	0.780126	-0.131813	-0.300991	1.01412	-0.0606725	-0.499717	0.607064	-0.265819	-0.416793	1.05925	-0.0640379	-0.62104	0.794866	-0.0662197	-0.562983	0.621197	-0.206347	-0.150843	0.0587429	-0.113948	-0.400291	0.423737	-0.28064	0.0253475	0.495455	-0.00217777	-0.32182	0.860557	-0.161138	-0.121837	0.46135	-0.173919	-0.352408	0.309302	-0.284458	-0.372652	0.064063	-0.190168	-0.437531	0.674632	-0.253333	-0.572889	0.706756	-0.056227	-0.642013	0.705204	-0.0806322	-0.358164	0.62186	0.0179464	-0.105296	0.70882	0.0088232
186	1.8462	-0.21711	0.894982	0.001661	-0.367921	0.785452	0.00817212	-0.216265	0.0955669	0.220847	-0.0927761	0.485186	0.177089	-0.314534	1.01641	0.0875353	-0.530475	0.622792	0.270667	-0.43186	1.07045	0.0646124	-0.612581	0.792044	0.0543936	-0.615025	0.651576	0.14216	-0.145324	0.0620143	0.164692	-0.431395	0.417911	0.287093	0.0261322	0.499847	0.0519324	-0.30751	0.872205	0.176871	-0.250053	0.431864	0.261686	-0.286774	0.218638	0.257066	-0.382737	0.0690403	0.188613	-0.405541	0.741438	0.264154	-0.579819	0.704464	0.0484284	-0.648319	0.710013	0.0748621	-0.210048	0.099714	-0.192392	-0.169369	0.780042	-0.131829	-0.300876	1.01411	-0.0606612	-0.499836	0.60714	-0.265827	-0.416553	1.05923	-0.0638829	-0.620951	0.794757	-0.0659844	-0.563097	0.621272	-0.206356	-0.150833	0.0587223	-0.113971	-0.400149	0.423777	-0.280714	0.0253547	0.495416	-0.00219085	-0.321779	0.860453	-0.161125	-0.121737	0.461337	-0.17388	-0.352279	0.309345	-0.284566	-0.372624	0.0641059	-0.190181	-0.437637	0.674677	-0.253275	-0.573007	0.706763	-0.056178	-0.642122	0.705221	-0.0806017	-0.358112	0.621812	0.0179256	-0.10527	0.708755	0.00882241
187	1.85618	-0.217059	0.894878	0.00162647	-0.367916	0.785414	0.00819539	-0.216222	0.0955569	0.220924	-0.0926988	0.485076	0.176988	-0.314363	1.01641	0.0875433	-0.530418	0.622801	0.270771	-0.431665	1.07046	0.0646576	-0.612639	0.791962	0.0545136	-0.615065	0.651553	0.142335	-0.145291	0.0620796	0.164653	-0.430798	0.417954	0.287559	0.0261276	0.499812	0.0518694	-0.307437	0.87215	0.176834	-0.249766	0.431818	0.262015	-0.286579	0.218651	0.257289	-0.382702	0.0691146	0.18867	-0.405481	0.74145	0.264187	-0.579892	0.70442	0.0486136	-0.648395	0.709968	0.0750464	-0.209996	0.0997075	-0.19245	-0.169341	0.779957	-0.131846	-0.300775	1.0141	-0.0606584	-0.499954	0.607219	-0.265845	-0.416372	1.05922	-0.0638059	-0.620951	0.794717	-0.0658408	-0.563208	0.621343	-0.206365	-0.150864	0.0586649	-0.113997	-0.399989	0.423831	-0.280816	0.0253523	0.495396	-0.00218727	-0.321733	0.860349	-0.161127	-0.121618	0.461347	-0.17383	-0.352155	0.309397	-0.284697	-0.372584	0.0641385	-0.190203	-0.437756	0.67474	-0.253215	-0.573115	0.70678	-0.0561419	-0.642221	0.705249	-0.0805842	-0.358076	0.621775	0.0179102	-0.105294	0.708644	0.00882216
188	1.86616	-0.217038	0.894773	0.00158705	-0.367912	0.785361	0.00820603	-0.216188	0.0955447	0.220993	-0.0926636	0.484881	0.177139	-0.314207	1.0164	0.0875476	-0.530365	0.622813	0.270866	-0.431476	1.07047	0.0646885	-0.61271	0.791896	0.0546138	-0.615103	0.651539	0.142487	-0.14533	0.0620053	0.164717	-0.430494	0.417947	0.288164	0.0261391	0.499782	0.0518208	-0.307371	0.872091	0.176802	-0.249432	0.431787	0.262379	-0.286412	0.218621	0.257563	-0.382674	0.0691666	0.188727	-0.405439	0.741473	0.264208	-0.579969	0.704377	0.0487526	-0.648475	0.709924	0.0751845	-0.209966	0.0996853	-0.192487	-0.169339	0.779852	-0.131868	-0.300695	1.01408	-0.0606939	-0.500074	0.607287	-0.265856	-0.416241	1.05921	-0.0637799	-0.621026	0.794724	-0.0657699	-0.563323	0.621399	-0.20638	-0.150913	0.0585888	-0.114041	-0.399815	0.42388	-0.280954	0.0253499	0.495387	-0.00215383	-0.321697	0.860232	-0.161136	-0.121505	0.461364	-0.173773	-0.352022	0.309429	-0.28484	-0.372556	0.0641949	-0.190233	-0.437882	0.674796	-0.253169	-0.573181	0.706766	-0.0561089	-0.642279	0.705246	-0.0805697	-0.358059	0.621747	0.0179151	-0.105346	0.708507	0.00882636
189	1.87614	-0.217017	0.894659	0.00155311	-0.367892	0.785288	0.0082115	-0.216159	0.0955283	0.221058	-0.092608	0.484649	0.177093	-0.314052	1.01635	0.087546	-0.530329	0.622818	0.27096	-0.431306	1.07048	0.0647108	-0.612796	0.791851	0.0546983	-0.615149	0.651529	0.142611	-0.14531	0.0620059	0.164721	-0.430499	0.417877	0.288939	0.0261548	0.499733	0.0517935	-0.307318	0.872019	0.176779	-0.249051	0.431777	0.262785	-0.286272	0.218551	0.257864	-0.382646	0.0692014	0.188784	-0.405417	0.741487	0.264221	-0.580022	0.70434	0.0488313	-0.64853	0.709885	0.0752623	-0.209937	0.0996511	-0.192541	-0.169333	0.779754	-0.131881	-0.300613	1.01402	-0.0607237	-0.500192	0.607333	-0.265864	-0.416121	1.05918	-0.0637572	-0.62112	0.794739	-0.0657259	-0.563443	0.621437	-0.206402	-0.150813	0.0586644	-0.114076	-0.399648	0.423922	-0.281112	0.0253577	0.495379	-0.00210325	-0.321675	0.860106	-0.161145	-0.121403	0.461377	-0.173732	-0.351842	0.309431	-0.285004	-0.372533	0.0642566	-0.190263	-0.438016	0.67484	-0.253141	-0.573209	0.706708	-0.0560774	-0.642298	0.705197	-0.0805568	-0.358065	0.621705	0.0179285	-0.105394	0.708378	0.00884227
190	1.88612	-0.216967	0.894556	0.00152637	-0.367872	0.785209	0.00821374	-0.216126	0.095513	0.22111	-0.0925792	0.484494	0.177043	-0.313906	1.01627	0.0875364	-0.530316	0.622822	0.271036	-0.431142	1.0705	0.0647379	-0.612892	0.791823	0.0547596	-0.615193	0.65152	0.142712	-0.145228	0.0621141	0.164625	-0.430358	0.417834	0.289552	0.0261466	0.499655	0.0518002	-0.307275	0.871935	0.176762	-0.248779	0.431795	0.263158	-0.286164	0.218466	0.258099	-0.382602	0.0692287	0.188837	-0.40541	0.741477	0.264228	-0.580033	0.704313	0.0488614	-0.648544	0.709858	0.0752915	-0.209881	0.0996294	-0.192606	-0.169333	0.779663	-0.131894	-0.300534	1.01392	-0.0607333	-0.500299	0.607364	-0.265881	-0.415997	1.05914	-0.0637391	-0.621213	0.794743	-0.0656923	-0.563574	0.621458	-0.20643	-0.15072	0.0587117	-0.114081	-0.399483	0.423964	-0.281273	0.0253684	0.495353	-0.00204266	-0.321655	0.859976	-0.161148	-0.121306	0.461365	-0.173698	-0.351636	0.309396	-0.285195	-0.372517	0.0643086	-0.190296	-0.438142	0.674853	-0.253128	-0.573301	0.706706	-0.0560712	-0.642381	0.705206	-0.0805691	-0.358107	0.621638	0.0179369	-0.105431	0.708279	0.00885469
191	1.8961	-0.216903	0.894461	0.00150452	-0.367841	0.785106	0.00821757	-0.216106	0.0955107	0.221151	-0.0925837	0.484353	0.177066	-0.313777	1.01618	0.0875224	-0.530314	0.622809	0.271089	-0.430977	1.07049	0.0647526	-0.61298	0.791811	0.05479	-0.615232	0.651515	0.142785	-0.145187	0.0621852	0.164566	-0.430011	0.417846	0.28996	0.0261122	0.499543	0.0518503	-0.307234	0.871833	0.176743	-0.24856	0.431758	0.263505	-0.286069	0.218409	0.25824	-0.382577	0.0692628	0.188884	-0.405397	0.741439	0.264229	-0.580085	0.704309	0.048933	-0.648598	0.709853	0.0753622	-0.209825	0.0996144	-0.19267	-0.169337	0.779566	-0.131915	-0.300451	1.01382	-0.0607408	-0.500399	0.607367	-0.265909	-0.415881	1.05911	-0.0637392	-0.621322	0.794735	-0.0656978	-0.563669	0.621453	-0.206464	-0.15067	0.058707	-0.114075	-0.399305	0.423997	-0.281437	0.0253667	0.495282	-0.00196914	-0.32162	0.859844	-0.161151	-0.121225	0.461311	-0.173657	-0.351479	0.30938	-0.285371	-0.372492	0.0643493	-0.190321	-0.438243	0.674823	-0.253131	-0.573439	0.706731	-0.0560786	-0.642511	0.705242	-0.0805951	-0.358171	0.621562	0.0179382	-0.105463	0.708185	0.00886613
